<svg xmlns="http://www.w3.org/2000/svg" width="30.828" height="27.055" style="opacity:1"><g data-name="Component 5 – 5" fill="none" stroke-linecap="round" stroke-width="3"><path data-name="Path 10322" d="M1.811 8.639 3.534 1.5l6.506 5.6a32.952 32.952 0 0 1 5.275-.454 37.708 37.708 0 0 1 5.494.454l6.738-5.566 1.5 7.014" stroke="#ffffff" stroke-linejoin="round"/><path data-name="Path 10323" d="M7.153 14.013h3.2" stroke="#ffffff"/><path data-name="Path 10325" d="M20.153 14.013h3.2" stroke="#ffffff"/><path data-name="Path 10324" d="M11.351 25.535a3.632 3.632 0 0 0 2.582-.848 6.738 6.738 0 0 0 1.482-3.021 8.371 8.371 0 0 0 1.564 3.021 3.6 3.6 0 0 0 2.6.848" stroke="#ffffff" stroke-linejoin="round"/></g></svg>